<mxfile host="app.diagrams.net" modified="2023-06-13T10:06:31.499Z" agent="Mozilla/5.0 (Windows NT 10.0; Win64; x64) AppleWebKit/537.36 (KHTML, like Gecko) Chrome/114.0.0.0 Safari/537.36" etag="tMj0jj7CiqO3JFUga2Ns" version="21.3.7" type="github">
  <diagram name="Page-1" id="Teo1j2LG4N3x4iGFQnj_">
    <mxGraphModel dx="1877" dy="541" grid="1" gridSize="10" guides="1" tooltips="1" connect="1" arrows="1" fold="1" page="1" pageScale="1" pageWidth="827" pageHeight="1169" math="0" shadow="0">
      <root>
        <mxCell id="0" />
        <mxCell id="1" parent="0" />
        <mxCell id="bcjr0jAJCLnXzcnel1OI-3" style="edgeStyle=orthogonalEdgeStyle;rounded=0;orthogonalLoop=1;jettySize=auto;html=1;entryX=0;entryY=0.5;entryDx=0;entryDy=0;entryPerimeter=0;exitX=0.522;exitY=0.012;exitDx=0;exitDy=0;exitPerimeter=0;" edge="1" parent="1" source="bcjr0jAJCLnXzcnel1OI-1" target="bcjr0jAJCLnXzcnel1OI-2">
          <mxGeometry relative="1" as="geometry" />
        </mxCell>
        <mxCell id="bcjr0jAJCLnXzcnel1OI-8" value="Indexing is timer based" style="edgeLabel;html=1;align=center;verticalAlign=middle;resizable=0;points=[];" vertex="1" connectable="0" parent="bcjr0jAJCLnXzcnel1OI-3">
          <mxGeometry x="0.0237" relative="1" as="geometry">
            <mxPoint y="-15" as="offset" />
          </mxGeometry>
        </mxCell>
        <mxCell id="bcjr0jAJCLnXzcnel1OI-1" value="Azure Cognitive Search" style="image;aspect=fixed;html=1;points=[];align=center;fontSize=12;image=img/lib/azure2/app_services/Search_Services.svg;" vertex="1" parent="1">
          <mxGeometry x="290" y="191" width="72" height="52" as="geometry" />
        </mxCell>
        <mxCell id="bcjr0jAJCLnXzcnel1OI-2" value="" style="verticalLabelPosition=bottom;html=1;verticalAlign=top;align=center;strokeColor=none;fillColor=#00BEF2;shape=mxgraph.azure.sql_database_sql_azure;" vertex="1" parent="1">
          <mxGeometry x="490" y="100" width="47.5" height="50" as="geometry" />
        </mxCell>
        <mxCell id="bcjr0jAJCLnXzcnel1OI-6" style="edgeStyle=orthogonalEdgeStyle;rounded=0;orthogonalLoop=1;jettySize=auto;html=1;" edge="1" parent="1" source="bcjr0jAJCLnXzcnel1OI-4" target="bcjr0jAJCLnXzcnel1OI-5">
          <mxGeometry relative="1" as="geometry" />
        </mxCell>
        <mxCell id="bcjr0jAJCLnXzcnel1OI-4" value="Azure WebApp" style="image;sketch=0;aspect=fixed;html=1;points=[];align=center;fontSize=12;image=img/lib/mscae/App_Services.svg;" vertex="1" parent="1">
          <mxGeometry x="-60" y="192" width="50" height="50" as="geometry" />
        </mxCell>
        <mxCell id="bcjr0jAJCLnXzcnel1OI-7" style="edgeStyle=orthogonalEdgeStyle;rounded=0;orthogonalLoop=1;jettySize=auto;html=1;" edge="1" parent="1" source="bcjr0jAJCLnXzcnel1OI-5" target="bcjr0jAJCLnXzcnel1OI-1">
          <mxGeometry relative="1" as="geometry" />
        </mxCell>
        <mxCell id="bcjr0jAJCLnXzcnel1OI-10" style="edgeStyle=orthogonalEdgeStyle;rounded=0;orthogonalLoop=1;jettySize=auto;html=1;entryX=0;entryY=0.5;entryDx=0;entryDy=0;entryPerimeter=0;exitX=0.5;exitY=1;exitDx=0;exitDy=0;" edge="1" parent="1" source="bcjr0jAJCLnXzcnel1OI-5" target="bcjr0jAJCLnXzcnel1OI-9">
          <mxGeometry relative="1" as="geometry" />
        </mxCell>
        <mxCell id="bcjr0jAJCLnXzcnel1OI-17" style="edgeStyle=orthogonalEdgeStyle;rounded=0;orthogonalLoop=1;jettySize=auto;html=1;entryX=0;entryY=0.5;entryDx=0;entryDy=0;exitX=0.5;exitY=1;exitDx=0;exitDy=0;" edge="1" parent="1" source="bcjr0jAJCLnXzcnel1OI-5" target="bcjr0jAJCLnXzcnel1OI-16">
          <mxGeometry relative="1" as="geometry" />
        </mxCell>
        <mxCell id="bcjr0jAJCLnXzcnel1OI-5" value="" style="shape=image;verticalLabelPosition=bottom;labelBackgroundColor=default;verticalAlign=top;aspect=fixed;imageAspect=0;image=data:image/png,iVBORw0KGgoAAAANSUhEUgAAAH8AAACBCAMAAADe+5VIAAAAZlBMVEX///8AAADPz89BQUF+fn6RkZGCgoKcnJzX19fU1NTx8fH6+vqVlZXMzMz19fXf398uLi7m5uYoKChnZ2dbW1txcXE4ODiLi4u8vLyioqKsrKwNDQ0XFxciIiIcHBxhYWFSUlJJSUnXG8saAAAJDklEQVR4nL1b2YKqMAxVARcYEcQFXEb4/5+8qDTN1lKcmZu3GYqnbZqTpWE2myq7ulm2p+/5dd9VyWWbTv6BH0i6jYvrnMi9u+z+E3p5Ps1VedTZf0CPdfCXnC5/jJ4vPehPudV/CV/vR+B7qco/g/dtvZVi+zfoeRcE30vzF/C7bw4THZOvXpaVeBL/PvyGqv4Ub1OwtrxsHnQCx/eDrJffgS9v+Oe7WvDd7kwmGO+auDq0vVRVUpf5D+GzAv32XT9g6Zf7RBTxz5ihRb+1co5KD+4Z9Dr53C4StBIvzTc3N35/YD8kpwX6Ca8ms+bqRn/KY/0JvvU3nfc4bx2OCctyOnwDL7c++J1X+yD7qX46t696oow0jJyfMvEUWLNyKy+7CM90P7Vxz47nR1TwR5P4OQWlnp1jth2HiGvrBtNFw6bgNmEpNey+a0RZMfBW7vDu/OkOAPU41JYmHN1Bj+SABJ6B3rMYRul0y6+Zzd3dQeAGa2kTgL44RyNbJmxu6eWnox1YjDnG9EK5TLG99MjQR2MvSyXGRbvQE8bkcnje0BHzLsDB1Ha4b3Q9brN1RAfcmyAnf4EXIqcGUm5QvTDWLFnAM49DMzAbwbtCgq1En8/pBHkacJhA6mDQJ33DuFpfQsjnwgLO06TIooS31Q04c+j3AtGImj66fanrSJ0KgQWelIeOBAsd//xOn6g2t66ut8rhr3KgrMUI/Lk0c0UR/Q6P6FQeK4++uVkbSPgTsrVPLjPkjvDXdsRJpXFMDKpuMnjMHuClRa9D5cVPVBVTYlDPJpwxuj85evP4nrgH/6HanCAGjZTBwqkFIOV/Df9y4us2J4jhJWfBdOYJiUY39g1gWyf+10xK5gr/r9zSDQcd8Mw6sXoPvji6/a5a9d25X26pnayGf+/R8bS0W9l/huOXyBn3drdm7mkeY0sAO0MnGHi5QAND8TNEmwMnCB+KXCis1Z5Nm2ThrQrEv1hOLIATstWcyh0eAZi1Idg+UrwIwt/Y9Ph6xpxQigBpwFub2ArwS7OCb2KuAfg4sBWcsOXH4OzAhxNBE8RxfFR16KQ/6VXDU+KnEqT+gbboCsbwa2zxV90d8AShjxMB32grM/nbgb7sx19zsj3o7pAPWxoPdUvJj85FaubDzzSyjdVgRMazw1YY/gP1M2fhxF+hSHa+b1AWpOd2aDSerXlsTPXKXIUTv7KI1+eeIerf68dAKxAA0ZuHD/aWP/54yRDk4MK8ngetZYEEjothEF45VfA35Bcia3M4v5Qu9yk1t0V4YnaTVwZG8JljxfV5PcOmlGyjWsN+0/BFdJet7AojPUIhlAwR8if4D03LxA2r8SGu0gHZF5Px9dh3Rij/qtpiiujIhBrmHR5WOfF96TviJd0W0YBhhg+J48f3lbDIIWu1LAg5rZLMqA3F1+JPFZ+FBIPYcOmtAUhZxvlvKn4f9yiJrj0DL4cL/M926wf4W0T5MjIAh/vegJ2xW1bkNPgoKgnFX8xyZIuCkm28+doAY4CszGcOCjru4fgkMrzx+hANOOEvGkHAHtpUego+yahPVLew5afn+YSIqCKDbKoMLmUa/ixD4RfVASz5SdS2zE1nuUaRy+UTfEzJNLaFbP+lXOAkFgKkiXUp7eITfLvSjgzLTDxQkNkIz4mLvFXqyX+d+GZtER1nDvd1hyc5v4kQErusZvFr+CVZsd0AFoM/hZf8tPx7Mn5mNPt2QpYtlPtrXtn4DXzm9Up70LSrnjW+hPXufxOKb7zQcOQRYas3+Di88/n/OBR/xf6P+Pqgxk7ofrVwxj/DYQ3AN17XVDxSRDaOAheaYqsV4OxlWAC+2fC7+Qeprerh46KzI84i/kWBzYT12+o6TZL0IAsXaWmAWePS9AT920L4nImuZNwPYNVE7teC8M3vAOGQ/X8/UovoOMofajqiMSsA3/wKWJt296Hf7GBKTjKS/xZVID50lTR8IBX9ogixxW1F8v9Q/knNK0bLGaE4K3oWoc72WTcP5V9YgdFxbggu4YW7g5rR7/hF3bv+E4pv3t6boB9tiOjlELb+ki3pOxi2KRAf3C9EPIC/nSkVG+0YLJDGErOMQHzgKtAuzOj1rqhvCUrG+4/umsLwU7N1e3iT4iv6rTDl52frjcjdcxg+kJh1pYAPv1bTy76ekiFBRJ0HtwtJG4PwAQtlHMIgZ5KShiI6JlvedBCEDwentf/T8GXhLlpT/hWmGYJvHSXSXG4IkcZfG164O1ir06pMAfjWh6LlzzITENJEoR8uWizfcl1pdb5xfHTFT/wbWBz/yYwX0V8Sq6w4HA0PPoKnOw2cIwlfNJs4mg7AZt346EizhjowCq1NjsYXev0t/QJOcOGTdim+BNCzWr9F11x60wHuRnLgXzCjiDWAWehV/HzIGPQC945sEDpYBr9jl+MyiYHiauFonyjj4rvSb1kYT6ANMk+YFWk5FGygs8CoN3bkK/bj2FuKO3k3AljAdVKfpLjnI2tT+0L1mMo2h3AO8siOL5A1fijozuXZsCO0i1w0HXQsZi/nQpbO5qusg0FBPdPZhbno4sJ/W0RS+tXEIIgcAyaA08GXKNVmxpxygs7hY42i4oJb4+ScjOhGWy8zdFyPvqnmvFdL31e0/Y9VyNch+IYL3a/xafLY7N6ok4Wk5lqngV8jkDYoRxOVCEp0Z4x+bIJB06BvKZVac/TI2RwN2pzSd82izv0KfWFW1iLxc16GoTDb1z0uRdjsPjosk1UStycekvfpr7v101YUfBVDRWqO4hTHAXmJpXOtgdcrO0fPAN96b/OldQy+gqVD9FZMInf/obKhlrN73SfCrzG5Jv7PQZCRfPjxi/DrFN/bR1+id93fDozOwPthxcO9AdiC/N+tjEkdez5scbRdb/Ar+59+f5WXdXKs2rZrD1Xc7Aj/FI2wv3xL6HFaKOeWLMuHfaQ6uR2RZ8ny9bkjj7//4INEcSiiY7K6XJqvpWhyuYV86jBZ1C5xTaI/+jR5G/At6nzsM4efiPjsRpERevyhjLqo5V9/Ft74lODzi78lmQiEBjkt/wP6S9ZNxFLPa3H83x/kX85V1MdFt1MbN/V0uvsHcU1zA84LNXcAAAAASUVORK5CYII=;" vertex="1" parent="1">
          <mxGeometry x="120" y="188" width="57" height="57.9" as="geometry" />
        </mxCell>
        <mxCell id="bcjr0jAJCLnXzcnel1OI-9" value="" style="verticalLabelPosition=bottom;html=1;verticalAlign=top;align=center;strokeColor=none;fillColor=#00BEF2;shape=mxgraph.azure.sql_database_sql_azure;" vertex="1" parent="1">
          <mxGeometry x="302.25" y="330" width="47.5" height="50" as="geometry" />
        </mxCell>
        <mxCell id="bcjr0jAJCLnXzcnel1OI-16" value="sa" style="shape=image;verticalLabelPosition=bottom;labelBackgroundColor=default;verticalAlign=top;aspect=fixed;imageAspect=0;image=data:image/png,iVBORw0KGgoAAAANSUhEUgAAAIkAAACMCAYAAABI6Yp6AAAAAXNSR0IArs4c6QAAAARnQU1BAACxjwv8YQUAAAAJcEhZcwAAEnQAABJ0Ad5mH3gAABqhSURBVHhe7Z0HWFRHF4aPvUejYsPee4k1v0as2E0ssSV2RWNXsIEFVEBEwYoiRrHE3itq7BU1GmOJvWtiR41YY/75hllgL3fZBXaXuzLv8+zD3gFx2f3uzDlnzjmTLPzt+/9IwbNnT+nly38ofz57ypA+nRiVJFWSi6+RvAh7wQVSpFABKRAJR08kHz58oOdhYXwGSZ06lRiVJHX0RPLy5UvKkCGdnEEkeuiJ5PXrcLLLlk1cSSQRRIrk3bt39OnTJ0qTJo0YkUgiiBTJx48f+dfkyZPxrxKJjkiR/PdfDE9YIuHo2SQSiRpSJBKjSJFIjCJFIjGKFInEKFIkEqNIkUiMIkUiMYoUicQoUiQSo0iRSIwiRSIxihSJxChSJBKjSJHEEyRpbdmyhVp/9x11aNeedu/ezXOEP0ciSyr++ecfevLkKZUqUZR/Q6LO+/fv6d69ezTG1ZWOHT0mRolSp05NswLmkKOjoxj5fJAziYkgtfPypcs0c/oMatakqZ5AAMTjMnQYnT59Wox8PsiZxATevn1LSxYvpvXr1tON69djXVaKlyhB02fOoFKlSokR20fOJEY4ERpKLVu0IB/vyWwmuWTU7rhy+TL5TZ1Gz58/FyO2jxSJCkgKv/TnnzTZ25u6d+1GVy9f4cuNqezft48C5837bAxZKRIFf//9N80PDKS+Tn0ocO48Cg8PF98xHYhs+bJfaNWKlWLEtpE2STR2huykqb6+dPfOHe7iJpQMGTKQj+8Uata8uRixTeRMItiwfj2bPZzo2tWrBgWSIkUK+jJrVkrF3F1TeP36Nfn7+dO5P87ZdMmKFImgTt26VKRoEXEVE4ij0w8/kO/UqfRRxdbIbped0qaLWUN9/do1JhTbNmSlSARffvklWxp8KbWizDVVqlRUt149CgyaT6NcR7MFmkg5JyRPnpxatGhJjo4NxYg+B/YfoIkeE7grbYtIkUSjcuXK1KhxI3EVIZxp/n4U9PMCqlq1KqVPn557PWztED8RQTo2g5QqXYq8Jk+mYsWLi9Eo4Blt3LCBAubMESO2RZIRCe7isLCwyMeTJ0/o9u3bdPfuXfETEfTs2ZMqV6lC3dnX9Zs2UouWLbktogMheSXpmYFqnzcvN1Qx4xRXEQpYtmQp7di+I07utBawee/m4d8P6cSJE/TXXw+YEN5RpkwZ+fitm7f4Vx0wIl/980pcRYTR0dUpS5YstDB4kRiN2LiDG5zXPi+lSBklDgB3uG9vJzp06JAYiSB/gQK0KDiYChcpzAWwb98+Guvqxl7TX+InIsiZMyeNHT+OGjdpoic8rWPTInnx4gV169KVeyT40PEB6d58U13YXLly0bEToeIqdm7fuk0D+ven8+fOiZEISpcpQ5u2bKaUKVPya8RJ5s2bR36+UyO9GrscOWhOwByqWKkSt3NsCZtebrw8Pen3M2e4wCESfDgQhzliHGo8f/6MXr16Ka6iyJcvX6RAAJ4PGDCAvmvdmvd7qVqtGm1kSxe+2ppAgE2LZP++/eJZ/Pn03yeTRfXgwQN68viJuIqiTNky4pk+Xt5eNMR5GE2Z6kt57O3FqO1hsyJ59OgRPXr4UFzFn48f/+W/yxhYNrAcq4Xpy5YrJ57pkzZtWurduzcVLFhQjNgmNisS5HaYAqZ+TPF4IDFI98iUKRNVYW5t9erVTVoCsFl39+4d1chpGWaTGEJpoAYvWkROTDjnz5/ny6MtRGJt1nBdumQJjRszVlypkzFjRurWozt3Y/E8T5484jtxBzbPmtVr6NDBg9w2efz4Mb188ZIby6fP/i5+Knbgeo8eNYpCmBuMABxc7TZt21L5CuWpSJEiXLxaxGZF4ubqyndajZEzV07y9PKi+g0aiJGEgbv/2bNn3L19zr5CJPXq1xffjR1krfXq3kMvRJ+CzXSFCxemKkww9RrUJwcHB80ZtzYpEkz9PdmbjbvaFLC0LAwOZstLFTGSOEzw8KBFPy8UV/pgZkmXPj23X7p260otv/1WM50wbdImgaEZFhZzwwzrP4xFJa9evSL3cePoypUriWYDwIPatGGjuIoJZqTX7Ea9wGyVES7DqbFjIwoMDOQbhHj9iWm7pHAbM9YdT7Dmhoe/IbvsWfk3tMzNmzdp08ZN9IKt8dGpUKEC/a9mTS4GvOnRefr0KQ/BO9Spw/darA3skadspoYQ0Hnb2IeOnz986BBt3bqNB/HevAmngoUK6cVjrIVNiuTihQvszdvC3rg3YiSCVm3bkFMfJ7rAvq/ck8GHcuf2Hb5fAxvC2us+NgdrMgE71KlLRYsVpTBmlyD8bwz8jdhUPHrkKF27eo2aNG0ivmM9bHK5wSbbs6fPxFUUhdh6Dg9m/oIgym5nJ0ajwOyyY/t2tvSM5waotUnDlkLkrPzYuTOt3bCeFi9bSl9VqczzUGCTGAICx+yzedMmOnnypBi1HjYnEhitcD/VqPTVV/wrdmMXL11CJUqW5NdKtm/bRmvXrKF///1XjFgfiKJ27dq0bj0TC3ut1apXN2nT768H+puG1sDmRIJl8dYt/R1eAIM1b9684oqoJBOIy4jhqrGRbNmzU/78+cWVaeBuRnrBQzNEeaODJefwwUPcnTaFPPbxj/XEF5sTybu37+jG9RviKoqSpUrpeTa4U+vWrUuDhgwWIxEgaDU7YA7V+Pprk7frEYqfOGEC1Wf2hGP9BtSrR88Y9lBcwdK3detWat/2e56MdPnyZZNmNojf2tjecvPxAz1UMfgqVKwgnkUBEbTv0IFvsn3xxRdUrUZ1+mXlCipbtmysNoAOBL22btlKDerV5/EN2AV47Pn1Vxru7MI9priA2egV+/dHjhyhrswuGdivP925c8fkZQ/eDSLH1sbmRJIyRUruHRQspL9pZsj+AIMGDaKJnpNoiq8v5ciRQ4waBkYtEodGjxxFbqNHMzvggfhOFBAKSj+x/JlK6PFQ8nD34OI4fOiwGDWdSl9VEs+si81FXDFNP370iMLZdI8g062bN/lmGXZbkdiTUGAjzJoxk3bt2kVPDBjIOjKx2cmDLUOtWrcSI+rwYN748XTk8BG+c20sRmJvb0/3798XV1FMmDSROnfpIq6sh02JBHe4JYJJ+NBgYyAtEbOHqUYkgCe1YvUqvoQlS2b4rKDOP/zIg2OGwB6OPTOy+/brx69dR43iX6OzlbnvhnJXLInNLDfYUJsfOJ+uXr0qRswDhIeSh8EDB/H81bgIBCB3dtSIkTzKGxuTvDx59r0aRYsWJac+fWjZ8l+oY6eOdOnSn+I7USDZuljxYuLKutiESBAX8fH2phn+/uQ2ajQPy5sDfLDYTR49ciS3MeILug34T5tGT5mLbIgCBQpQh06dxFUEdjnsqP+AATR91kxydnGmfMItv6oiOLjsyZMlzseleZFgGezD7vAtm7dwI/HUqVPk7ekVZ88iOvg9i4MX8zZWa1at5naIMTshNuCd7N61m4KCFogRdTBLoD4HfONQmxYvXUpDmeeFpKXo7vi5c+fFsygKFy5EyRLp6DvNigRvPPZg2rX9ns6cPh25YYcPc9/evRQ0PyjeCc8Ixs2eNYsvLYbEgQSg0mVKR97d0VFzn/H6AufOpeDgYIMeT+7cuakXM7AD5s2jJUwgaHSjjNVgb+kfZugqQYqkKW67JdCkSPDBhYaG0rAhQ+lPVMwpgB2xbu1a7jXEh3x58/F8DTUjGB9EiRIlaMiwoTRh4kTKpnIELpaOAgbyVv2n+dGOHeoFWPj/WrdpE+sm3TlFuYYOlH7EZhhbEk2KJCQkhIYOHhKxNqvc6fjgXN1cKWvW+O1Yp0ufjr5v9z3lYne2kvYdO9DsuQHU28mJsjBDU22ntsb/vqaRo0byAJ2Sly9ecBf6z4sXxUjcQD6JEhi8OZlIEgtNiQTLx5bNm6lfn74G4wkIhk3y9qJWrVsnaPpFeLtN2zb8dyADDME4lHV6MQMZ3gbuekRH/1ZU4QFsATR0dKQevXqp5qUiUWj8uHE8dySuoE2FEjs7u3jfEOZAMyKBgbqAGX5urm5iJCblK1Qg7yk+1LhxYzGSMHqyD9mR/S7n4cNpxaqVVKmSfkQT+ylqVKtWjYuoW/du1IItW2r8duo3ZvfMFlemgzrimrVqcXcXG5Egc5YsqrOWtdBEMA3F3GPdxjAPYRcv3VSCux0ZZ6PZElO6dGkxah6ws4vpXG2zbxKzSX5WeCyIsv525nRk0hK8LFfmlu/auZNf6yhZqiRNmDSJdyOIC5GF7c+f00tmc8G4fv/hAzVo0CBRMupAoosEoujdsxedOnnSoKfxVeXKNDdwnkn7LuakZfMWbPr/Q1xFgBacIbt26hmRyIKDm66zQ1DO6TfdXy91ISHgfUksoxUk6nKD0gTX0aPZ1HzKoEBgpDZv3pxuM7f10qVL/AOBoNW8B3OD3mlKypWLGX5HLbCziwsVKlSImjZrRjNmzTSbQADCAYbeH2uQqDPJH+wu7dS+Aw9tGyNjpkxsJrFjS0NWnniTwy4Hj2Hky5eXcufJw91S5JGaC4ixds1a4iqKoc7ONGjwIHEVBT5IiL1M2bJ8P8dcnDxxkk6dOskLzMwpvLiQqCLBm9q2dRtxFTdwN8MrSZOWPVKn4dVwAfPmiu8mnJAdIfRTnz7iKgose+gvYmmQATfFx4cO7NvPP5uJXp7Utm3bRFl2EnW5QRwC1WvxAdMvjDw0okEdDsRiTq5cucxFGP1DgRtqaVcUy+iihQupVctvaf3addwwRmhgITOgTZlxLUGiigTTZwPHhmbZ/sdWvTmpVesbchkxgjp37cL7sCLzDUsJhG1JkOj9y9JlMbokwR4LXhQsrqxLons3165do26du6gm2cDNRAjeFKMNJQpojGdu8P8jxxVGNl4HEqstXX65betWHnFWth3PnDkzrVm/jooVs27KQKIH0xDdxN2qBmpnDh45TIsWL6Yhw4bxVpmIZ+CB2AmWAt0DnoUlwCyHQBZqdPF/WKM+t3qNGrzEQgnCBQGz51jd09FMMA0xCbU8iu49epDb2DGRwS6s2eg4hGgodkxv37xFb9+9pfHu7mb1bhIT/I1oc4EMfWVoH0v0VH8/HvW1lhGriTJP3K0IQe/buy9Gt2UcDYJuAHnz5ePXeGNwZ8PgRRi9br26vMgJ5RTWetMsDf4OiAHHqNy/p78Mv2KiScXer5q1alqtVFUzeze1atXivTmUwB5A7khsWelKL+RzAK1Dnfr2FVdR/MdmmW3btsUQjyXRTME4PmjMBocPH6a3isInrMVFmO2CwipriAGBMaRMwliF+4nXlZAdZzXg2iI5OvT4MbrPlk/8P/gM8ICxjOUV9trFCxf5aV3Rwc/evHmD58SY+3WpoQmbRAeSiIa7uNDOHSFiJIpGjRvT5Ck+/A6zJMgfQVE5irIgFDTo7fhDJ2rdurX4CfNw/Phx6tiuvbiKABuNKMDCHhWMZESSsdmHjDe1hn5z5weabUc8NjQlEoANNRixSrAD6jdjukXfFFTs42g09IaFMa0DsZEJEyfw0Li5QPrkNN+p4kod2BwZMmbkxqvSHQblypenBQt/tvjGp2ZsEh34w9t10L/DAOpi5gWYL+yuA+4klpWxY8ZSuzZt6fixY3oCAdi2RxM/c3ZKwp6MMSAM/N9qAgFI7UQap6VdYs2JBLiNGUMFChYQVxFJyRUqVqR27duJEfPw6OEjWr1qFXVs34GWLVkiRtWBXTTB3SNGc5z4Yo76IXiCvCrQhD60CUGTnY4gChhvoaEn+DZ8/4EDqF///rxTkDkMVxh+e/bsoRn+03moG2WjpoBC9bDnYeTYKOq4k/iCPrTp0qVlM+TbGDNXXMAsAntNLWHbXGjOJtGBXdA/zp7lCUcwVtUyx+ID/k4UZKFOBl5UXKdqvI4fu3Qmdw8PMRI/IAzcCFhKMEvBHvqNPVBzg3ZfpoIkqHnMgLVUxBloViTmBmmKOIjRb9o0epaAwi4dOCwJhqwlAlqY1c/+fpb27t1DwQsXGZxpEDbo5eREA9hMG703i7nRpE1iblD95zLMmTzc3c0iEOA3zY8XmFsiQw6xD/RG2btnr0GBQJxI5O7t1NuiAgGanUkeP3pMq1evZktNZl5xnzpVat6TBBlocV1/vSZ5UtD8+eJKHRxshDRJU49Ag22ECv/AoKAEtSNXA/s2M6ZPpwf376suh1nZ3482FOjkZI39Ks3OJI+fPObHsI5xdaPRI0aS89Ch1Oa7VrwuJ67A8EVZghrpM6SnZi1a0Oq1ayh5iphvB+5qlFgqDWZ8eOeZ/YAZKiGGZ3SwzKxds5ZGuLjQ/Xv3VAWCI1F8pvhQkyZNrLahqVmRoB4W1XBKYutoZAhsCA4YOFBvWsYb/E3t2jQ7IID8p/vzyKpaSWmhwoW5/VGvQQNV4/nY0aO8QQ0iowkBsRrYS244MdQAECtaWDRo2NAq4XgdNmeTxLb+wltQa3iHWaBp0yZUvnx5fo1eqkg/8J8xnU/ZOuNTLcCVM2cO+pLNQoi4quV4gM2bNvN4C2aC+IDXjCNhkZH2/p3674CgUaaB12ttNCsSxA/U9isMAZsK9Tu4GxEHUYJ9EBxr0rffT7Ry1Wrq0LGjnm2DBsJqMxfqhXEwAOwOl+EuqgccvWGvc+aMmby8Mz4sDg7mjXzxNyiBwJF4DYFYOyNNh4ZFEq6a+KssxcTPoPKvrkMd2r9vH1/TcWSIErzZTZo2pZGjRvHTwJXTtdpRrvg36F+mW/sRsxnm4hzDFkBydN+f+vLNufiAPmioUFTm+qKDNMpI0RQwuyj5TAxsbrmJDnZsJ3tP5u2odE3wsNfhOXEiz16LC0huUoI4RM6cufQEhbsabSl0SxSEMdZ9PPXo2TPeZZio03H3cOcnfUKYAEXiffr2Id+pvokqEKBJkcCqR2qiErh+OtDIplOHjrRi+XJu9EXnwvkL/GwZtWXHEFcux0ydRM/U/PkjMuJ0QBzdunenXk69eQZ9wNy51LJlywR7GjCQcWYwvBf8vwMGDaSf+vXTxGlamhWJ2geMqR/NducGzKUB/QfQzRs36F9mrCrBnX/96jWTN7543qxKtj4OBlA7yABCGTxkCC1fuZK3tzKHp4HfAcMajXPmMOF16drV4kEyU9HscoNTNpUgKcl56DDexC7cQKESpubv27WjZSuW881BU0CNy1PFbATSM5Ggw5AaWIoSMnvgRoBXo4zY1qtfj2o71BZX2kCzMwmOlVdy7+5d+nX3boP5FWhR5TFpIp+2EfcwFWywqYkOtcaG2mrGBlIT/f386MyZM2IkJgjAeXt58WAhAoSGTt7QApoMyyPHFH1VUaRkKrUdHHg1PwqYdMafqUCU2HWGV3QyNJTvxJ79/Xfq2q0bjRkX+4mhSmAw/9SnLz+qHlHew0ePqM44sKOqVIo4egVLDX6mctUqNHLkSN5JSUtodrl59860UDfudgTGkMaHlIK4CgTg32BZacpc5PHM4F27fh1dvXGdH4ViKoi4rl61mlo0a85THLCMoAGNz+TJqgE+bDlAnHjgpsBSevzYcU0Yqko0KRK8wWrehhLHxo34Ee+443UuqTmJi+EIYfj6+MTYZd6+bTvt378/hu2BRGslMFyje3BaQbMzidpmmxIc3owgmNqdam3Qzw0plkrQJRq5udGjuXjNWI6U4BDphLrSlkCTIsGCkTaN8bsYScvDhzlTtSpVqVfPnrRi+QoeX4GbjCncmmCpG+/hzs8gjg6WE8wy3l7efG8JoEW57rkOiKNcuXJyuTGVZMyQwwGGpsYf3jFPYc/uX/nJDt+1/JaGDBpMQYHz6bqiqMnSwOX29PZS7XSEDUBsBEK8OPBASa7cuXgBmhbRZCI0xIFqPbwmeAtv2OsyFbiWOAMH9TsOdevE+ay9hIINwGfPnvPlBLNIdLABmC1bdtoZEqJ3FD3AUoU9HHP0ajE3mrVJ8GZ7ennRKeaWrlqzhlq1acM3vEwFRica+1sbBNk6derESzSVYGbz9vJUPR4O+zZaibAqsalEaMwSOEQZhwtdvHiRZ289fPSIPqjkcTRv0YJmzYm92S7cTpyBB+MS3gdEiCUDBwUkNDsfW//IWlMG/uBuK2cYgG7Uyh1urWCz2fKYrlHghJ4mSCPE8oJTLXTM/3kBNWzYUFzFBP92QVAQb+9w9+49vgeEjTVkf6HvfEIz4WGYTpo0iRYvXCRGDIO+8fsPHpAziaXAXYkZJvx1ON26dZOfnYeamp27dxn8kBFdHeEynM9IyvgF7nScUuXjO4WaNWsmRtVBLe+mjRu5u25vn5cnMWEGKl6iOJ+VUNezaeMm1TSE6GBHGVWLWsXmRRIfkDmPDPrYgFAOHDpoMJcD4nIb7UorV6wQI/EDntyOnSH8+BStolnD1ZJsWL9BPDMMNvxCtu8QVzHBTaX0UOID0iLhyWmZJCkSY9O/jkux/BziHeYI2FWrVtUs+SiWJEmKRGmHGOLTJ8MigGH6/n38jnfTAfvHoU4dKRItgiJrU8DBSYaA0LClj4r+ho4NqcbXNfjpFBUrVeQxEjyQSafrIq0UAq4d6jio7vdojSRpuKItNwxX5f5JdJC0tHnbVpO6CGHZQaoAviLtEklMAJn8uoz/p+y9xcz09s1bHtvJkyc3E9bXvIuk1meSJCkSNK9Bb7aDB2LuoQC4rzNmzuCzhLmByw5xIvwen9yXxCBJigSgY5GXpxedPXOGR16xfGAH1j6vPT+kERFbc/VEsXWSrEgANhAR3r929Rq/uzNn/oLvoSAsL4kiSYtEYhpJ0ruRxA0pEolRpEgkRpEikRhFikRiFCkSiVGkSCRGkSKRGEWKRGIUKRKJUaRIJEaRIpEYRYpEYpRIkdhKAozE+kSKRFeo/OkTzxyQSCKJFAkKnZFrGZfep5KkgZ5NkiFDenpspkODJJ8PeiLBkR+vX7+h13HoByL5/NETCQqscWzHnbv36f179V6pkqSHnkhA5iyZ2YySka7fvC1nFAknMhFayYuwF/Q8LIzZKenILls2YdhKNzmpAC8XTgxsVIMiAejSg06Gr1+H87oUSdIC3i6cmVhFEh2oCrUpaq2cJJ8XCKwibobVg1+bKhJJUoXo/5HX2BHkgecpAAAAAElFTkSuQmCC;" vertex="1" parent="1">
          <mxGeometry x="290" y="450" width="68.5" height="70" as="geometry" />
        </mxCell>
      </root>
    </mxGraphModel>
  </diagram>
</mxfile>
